<svg width="302" height="49" viewBox="0 0 302 49" fill="none" xmlns="http://www.w3.org/2000/svg">
<path d="M10.7598 7.432V19C10.7598 19.224 10.8878 19.368 11.1438 19.432C12.3598 19.592 13.5438 19.672 14.6958 19.672C17.2878 19.672 19.2558 19.112 20.5998 17.992C21.9758 16.84 22.6638 15.208 22.6638 13.096C22.6638 8.84 20.0078 6.712 14.6958 6.712C13.5438 6.712 12.3598 6.792 11.1438 6.952C10.8878 7.016 10.7598 7.176 10.7598 7.432ZM6.82375 37C6.08775 37 5.44775 36.728 4.90375 36.184C4.39175 35.64 4.13575 35 4.13575 34.264V4.936C4.13575 4.168 4.39175 3.48 4.90375 2.872C5.41575 2.264 6.05575 1.928 6.82375 1.864C9.54375 1.608 12.1678 1.48 14.6958 1.48C19.4958 1.48 23.0958 2.44 25.4958 4.36C27.8958 6.248 29.0958 9 29.0958 12.616C29.0958 16.616 27.9278 19.64 25.5918 21.688C23.2878 23.736 19.8638 24.76 15.3198 24.76C14.2638 24.76 12.8718 24.696 11.1438 24.568C10.8878 24.568 10.7598 24.696 10.7598 24.952V34.264C10.7598 35 10.4878 35.64 9.94375 36.184C9.39975 36.728 8.75975 37 8.02375 37H6.82375ZM43.9724 16.024C42.3404 16.024 41.0764 16.488 40.1804 17.416C39.3164 18.312 38.7724 19.768 38.5484 21.784C38.5484 22.04 38.6764 22.168 38.9324 22.168H48.3404C48.5964 22.168 48.7244 22.04 48.7244 21.784C48.5964 17.944 47.0124 16.024 43.9724 16.024ZM45.1724 37.48C40.9804 37.48 37.7484 36.392 35.4764 34.216C33.2364 32.008 32.1164 28.776 32.1164 24.52C32.1164 20.296 33.1244 17.08 35.1404 14.872C37.1564 12.664 40.0684 11.56 43.8764 11.56C50.9804 11.56 54.6284 15.592 54.8204 23.656C54.8524 24.424 54.5804 25.064 54.0044 25.576C53.4284 26.088 52.7564 26.344 51.9884 26.344H38.8844C38.5964 26.344 38.4844 26.488 38.5484 26.776C38.7724 28.92 39.4764 30.488 40.6604 31.48C41.8764 32.44 43.6364 32.92 45.9404 32.92C47.3804 32.92 48.9804 32.68 50.7404 32.2C51.3164 32.04 51.8444 32.136 52.3244 32.488C52.8364 32.84 53.0924 33.32 53.0924 33.928C53.0924 34.664 52.8684 35.32 52.4204 35.896C52.0044 36.44 51.4444 36.776 50.7404 36.904C48.9484 37.288 47.0924 37.48 45.1724 37.48ZM62.6875 37C61.9515 37 61.3115 36.728 60.7675 36.184C60.2555 35.64 59.9995 35 59.9995 34.264V14.776C59.9995 14.04 60.2555 13.4 60.7675 12.856C61.3115 12.312 61.9515 12.04 62.6875 12.04H77.2315C77.9035 12.04 78.4795 12.28 78.9595 12.76C79.4395 13.24 79.6795 13.816 79.6795 14.488C79.6795 15.16 79.4395 15.736 78.9595 16.216C78.4795 16.696 77.9035 16.936 77.2315 16.936H66.9595C66.6715 16.936 66.5275 17.064 66.5275 17.32V34.264C66.5275 35 66.2555 35.64 65.7115 36.184C65.1995 36.728 64.5755 37 63.8395 37H62.6875ZM87.3449 37C86.6089 37 85.9689 36.728 85.4249 36.184C84.8809 35.64 84.6089 35 84.6089 34.264V14.776C84.6089 14.04 84.8809 13.4 85.4249 12.856C85.9689 12.312 86.6089 12.04 87.3449 12.04H88.2569C88.9929 12.04 89.6329 12.312 90.1769 12.856C90.7209 13.4 90.9929 14.04 90.9929 14.776V28.264L91.0409 28.312L91.0889 28.264L98.8169 14.392C99.7129 12.824 101.073 12.04 102.897 12.04H103.953C104.689 12.04 105.329 12.312 105.873 12.856C106.417 13.4 106.689 14.04 106.689 14.776V34.264C106.689 35 106.417 35.64 105.873 36.184C105.329 36.728 104.689 37 103.953 37H103.041C102.305 37 101.665 36.728 101.121 36.184C100.577 35.64 100.305 35 100.305 34.264V20.776L100.257 20.728L100.209 20.776L92.4809 34.648C91.5849 36.216 90.2249 37 88.4009 37H87.3449ZM124 37.48C120.032 37.48 116.976 36.392 114.832 34.216C112.688 32.008 111.616 28.776 111.616 24.52C111.616 20.328 112.64 17.128 114.688 14.92C116.768 12.68 119.712 11.56 123.52 11.56C125.216 11.56 126.848 11.672 128.416 11.896C129.152 11.992 129.76 12.328 130.24 12.904C130.72 13.48 130.96 14.152 130.96 14.92C130.96 15.56 130.704 16.072 130.192 16.456C129.712 16.84 129.152 16.968 128.512 16.84C127.264 16.584 125.872 16.456 124.336 16.456C122.32 16.456 120.816 17.096 119.824 18.376C118.832 19.656 118.336 21.704 118.336 24.52C118.336 27.4 118.864 29.464 119.92 30.712C120.976 31.96 122.608 32.584 124.816 32.584C126.384 32.584 127.744 32.44 128.896 32.152C129.504 31.992 130.048 32.104 130.528 32.488C131.04 32.872 131.296 33.368 131.296 33.976C131.296 34.744 131.056 35.416 130.576 35.992C130.128 36.568 129.536 36.92 128.8 37.048C127.168 37.336 125.568 37.48 124 37.48ZM138.679 16.936C138.007 16.936 137.431 16.696 136.951 16.216C136.471 15.736 136.231 15.16 136.231 14.488C136.231 13.816 136.471 13.24 136.951 12.76C137.431 12.28 138.007 12.04 138.679 12.04H156.055C156.727 12.04 157.303 12.28 157.783 12.76C158.263 13.24 158.503 13.816 158.503 14.488C158.503 15.16 158.263 15.736 157.783 16.216C157.303 16.696 156.727 16.936 156.055 16.936H151.111C150.823 16.936 150.679 17.064 150.679 17.32V34.264C150.679 35 150.407 35.64 149.863 36.184C149.319 36.728 148.679 37 147.943 37H146.791C146.055 37 145.415 36.728 144.871 36.184C144.327 35.64 144.055 35 144.055 34.264V17.32C144.055 17.064 143.911 16.936 143.623 16.936H138.679ZM170.023 21.256V27.784C170.023 29.064 170.567 30.2 171.655 31.192C172.775 32.184 174.071 32.68 175.543 32.68C177.239 32.68 178.583 31.992 179.575 30.616C180.567 29.24 181.063 27.208 181.063 24.52C181.063 19.08 179.223 16.36 175.543 16.36C174.071 16.36 172.775 16.856 171.655 17.848C170.567 18.84 170.023 19.976 170.023 21.256ZM166.423 47.56C165.687 47.56 165.047 47.288 164.503 46.744C163.959 46.2 163.687 45.56 163.687 44.824V14.776C163.687 14.04 163.959 13.4 164.503 12.856C165.047 12.312 165.687 12.04 166.423 12.04H166.999C167.767 12.04 168.423 12.312 168.967 12.856C169.511 13.368 169.799 14.008 169.831 14.776V15.112C169.831 15.144 169.847 15.16 169.879 15.16C169.911 15.16 169.943 15.144 169.975 15.112C171.127 13.832 172.279 12.92 173.431 12.376C174.583 11.832 175.927 11.56 177.463 11.56C180.471 11.56 182.871 12.696 184.663 14.968C186.455 17.208 187.351 20.392 187.351 24.52C187.351 28.52 186.407 31.688 184.519 34.024C182.663 36.328 180.311 37.48 177.463 37.48C174.679 37.48 172.263 36.472 170.215 34.456C170.183 34.424 170.151 34.408 170.119 34.408C170.087 34.408 170.071 34.424 170.071 34.456V44.824C170.071 45.56 169.799 46.2 169.255 46.744C168.743 47.288 168.119 47.56 167.383 47.56H166.423ZM204.275 25C199.699 25 197.411 26.408 197.411 29.224C197.411 30.248 197.699 31.08 198.275 31.72C198.883 32.36 199.651 32.68 200.579 32.68C202.403 32.68 203.875 32.12 204.995 31C206.115 29.848 206.675 28.28 206.675 26.296V25.432C206.675 25.144 206.531 25 206.243 25H204.275ZM198.851 37.48C196.675 37.48 194.867 36.776 193.427 35.368C192.019 33.928 191.315 32.072 191.315 29.8C191.315 27.016 192.371 24.856 194.483 23.32C196.627 21.784 199.891 21.016 204.275 21.016H206.243C206.531 21.016 206.675 20.872 206.675 20.584V20.2C206.675 18.728 206.323 17.704 205.619 17.128C204.915 16.52 203.667 16.216 201.875 16.216C200.019 16.216 197.747 16.552 195.059 17.224C194.483 17.384 193.955 17.288 193.475 16.936C192.995 16.552 192.755 16.056 192.755 15.448C192.755 14.712 192.979 14.056 193.427 13.48C193.875 12.872 194.451 12.504 195.155 12.376C197.587 11.832 199.875 11.56 202.019 11.56C206.115 11.56 208.979 12.296 210.611 13.768C212.243 15.24 213.059 17.816 213.059 21.496V34.264C213.059 35 212.787 35.64 212.243 36.184C211.731 36.728 211.107 37 210.371 37H209.843C209.075 37 208.419 36.744 207.875 36.232C207.331 35.688 207.043 35.032 207.011 34.264V33.592C207.011 33.56 206.995 33.544 206.963 33.544C206.899 33.544 206.867 33.56 206.867 33.592C204.915 36.184 202.243 37.48 198.851 37.48ZM222.157 37C221.421 37 220.781 36.728 220.237 36.184C219.693 35.64 219.421 35 219.421 34.264V14.776C219.421 14.04 219.693 13.4 220.237 12.856C220.781 12.312 221.421 12.04 222.157 12.04H223.021C223.757 12.04 224.397 12.312 224.941 12.856C225.485 13.4 225.757 14.04 225.757 14.776V31.96C225.757 32.216 225.901 32.344 226.189 32.344H234.397C234.685 32.344 234.829 32.216 234.829 31.96V14.776C234.829 14.04 235.085 13.4 235.597 12.856C236.141 12.312 236.781 12.04 237.517 12.04H238.429C239.165 12.04 239.789 12.312 240.301 12.856C240.845 13.4 241.117 14.04 241.117 14.776V31.96C241.117 32.216 241.261 32.344 241.549 32.344H243.037C243.773 32.344 244.413 32.616 244.957 33.16C245.501 33.704 245.773 34.344 245.773 35.08V40.024C245.773 40.76 245.501 41.4 244.957 41.944C244.413 42.488 243.773 42.76 243.037 42.76H242.893C242.157 42.76 241.517 42.488 240.973 41.944C240.429 41.4 240.157 40.76 240.157 40.024V37.432C240.157 37.144 240.029 37 239.773 37H222.157ZM253.236 37C252.5 37 251.86 36.728 251.316 36.184C250.772 35.64 250.5 35 250.5 34.264V14.776C250.5 14.04 250.772 13.4 251.316 12.856C251.86 12.312 252.5 12.04 253.236 12.04H254.148C254.884 12.04 255.524 12.312 256.068 12.856C256.612 13.4 256.884 14.04 256.884 14.776V28.264L256.932 28.312L256.98 28.264L264.708 14.392C265.604 12.824 266.964 12.04 268.788 12.04H269.844C270.58 12.04 271.22 12.312 271.764 12.856C272.308 13.4 272.58 14.04 272.58 14.776V34.264C272.58 35 272.308 35.64 271.764 36.184C271.22 36.728 270.58 37 269.844 37H268.932C268.196 37 267.556 36.728 267.012 36.184C266.468 35.64 266.196 35 266.196 34.264V20.776L266.148 20.728L266.1 20.776L258.372 34.648C257.476 36.216 256.116 37 254.292 37H253.236ZM289.555 16.264C285.651 16.264 283.699 17.4 283.699 19.672C283.699 22.008 285.731 23.176 289.795 23.176H291.667C291.923 23.176 292.051 23.032 292.051 22.744V16.792C292.051 16.504 291.923 16.36 291.667 16.36C290.707 16.296 290.003 16.264 289.555 16.264ZM283.603 25.528C281.843 25.048 280.403 24.248 279.283 23.128C278.163 21.976 277.603 20.616 277.603 19.048C277.603 14.152 281.491 11.704 289.267 11.704C291.251 11.704 293.395 11.784 295.699 11.944C296.467 11.976 297.107 12.296 297.619 12.904C298.163 13.48 298.435 14.152 298.435 14.92V34.264C298.435 35 298.163 35.64 297.619 36.184C297.075 36.728 296.435 37 295.699 37H294.787C294.051 37 293.411 36.728 292.867 36.184C292.323 35.64 292.051 35 292.051 34.264V27.976C292.051 27.72 291.923 27.592 291.667 27.592H290.083C288.835 27.592 287.971 27.752 287.491 28.072C287.011 28.36 286.483 29.128 285.907 30.376L284.131 34.504C283.779 35.24 283.251 35.848 282.547 36.328C281.875 36.776 281.139 37 280.339 37H279.475C278.835 37 278.339 36.728 277.987 36.184C277.667 35.64 277.635 35.08 277.891 34.504L279.955 30.04C281.011 27.768 282.243 26.312 283.651 25.672C283.683 25.672 283.699 25.656 283.699 25.624C283.699 25.56 283.667 25.528 283.603 25.528Z" fill="#03044E"/>
<path d="M9.0002 28L6.04297 28L6.04316 30.6093L6.04316 33.0439L6 35L6.04297 37L6.04316 38.7249L6.04316 39.9419L6.04316 44L7.55544 42.1736L9.00039 44L9.00039 41L9 40L9 39L9 37L9.00039 36L9 35L9.0002 33.0439L9.00039 30.6093L9.0002 28Z" fill="#03044E" stroke="#03044E" stroke-width="3"/>
</svg>
