<svg width="196" height="113" viewBox="0 0 196 113" fill="none" xmlns="http://www.w3.org/2000/svg">
<path d="M103.023 72.232C102.095 70.888 100.687 70.216 98.7994 70.216C96.9114 70.216 95.4874 70.888 94.5274 72.232C93.5994 73.544 93.1354 75.64 93.1354 78.52C93.1354 81.4 93.5994 83.512 94.5274 84.856C95.4874 86.168 96.9114 86.824 98.7994 86.824C100.687 86.824 102.095 86.168 103.023 84.856C103.983 83.512 104.463 81.4 104.463 78.52C104.463 75.64 103.983 73.544 103.023 72.232ZM107.727 88.12C105.615 90.36 102.639 91.48 98.7994 91.48C94.9594 91.48 91.9674 90.36 89.8234 88.12C87.7114 85.848 86.6554 82.648 86.6554 78.52C86.6554 74.392 87.7114 71.208 89.8234 68.968C91.9674 66.696 94.9594 65.56 98.7994 65.56C102.639 65.56 105.615 66.696 107.727 68.968C109.871 71.208 110.943 74.392 110.943 78.52C110.943 82.648 109.871 85.848 107.727 88.12ZM118.634 91C117.898 91 117.258 90.728 116.714 90.184C116.17 89.64 115.898 89 115.898 88.264V68.776C115.898 68.04 116.17 67.4 116.714 66.856C117.258 66.312 117.898 66.04 118.634 66.04H119.546C120.282 66.04 120.922 66.312 121.466 66.856C122.01 67.4 122.282 68.04 122.282 68.776V82.264L122.33 82.312L122.378 82.264L130.106 68.392C131.002 66.824 132.362 66.04 134.186 66.04H135.242C135.978 66.04 136.618 66.312 137.162 66.856C137.706 67.4 137.978 68.04 137.978 68.776V88.264C137.978 89 137.706 89.64 137.162 90.184C136.618 90.728 135.978 91 135.242 91H134.33C133.594 91 132.954 90.728 132.41 90.184C131.866 89.64 131.594 89 131.594 88.264V74.776L131.546 74.728L131.498 74.776L123.77 88.648C122.874 90.216 121.514 91 119.69 91H118.634ZM134.138 54.856H134.234C134.938 54.856 135.514 55.096 135.962 55.576C136.41 56.056 136.522 56.616 136.298 57.256C135.722 59.048 134.586 60.488 132.89 61.576C131.226 62.632 129.242 63.16 126.938 63.16C124.634 63.16 122.634 62.632 120.938 61.576C119.274 60.488 118.154 59.048 117.578 57.256C117.354 56.616 117.466 56.056 117.914 55.576C118.362 55.096 118.938 54.856 119.642 54.856H119.738C120.794 54.856 121.818 55.576 122.81 57.016C123.706 58.328 125.082 58.984 126.938 58.984C128.794 58.984 130.17 58.328 131.066 57.016C132.058 55.576 133.082 54.856 134.138 54.856ZM145.593 70.936C144.921 70.936 144.345 70.696 143.865 70.216C143.385 69.736 143.145 69.16 143.145 68.488C143.145 67.816 143.385 67.24 143.865 66.76C144.345 66.28 144.921 66.04 145.593 66.04H162.969C163.641 66.04 164.217 66.28 164.697 66.76C165.177 67.24 165.417 67.816 165.417 68.488C165.417 69.16 165.177 69.736 164.697 70.216C164.217 70.696 163.641 70.936 162.969 70.936H158.025C157.737 70.936 157.593 71.064 157.593 71.32V88.264C157.593 89 157.321 89.64 156.777 90.184C156.233 90.728 155.593 91 154.857 91H153.705C152.969 91 152.329 90.728 151.785 90.184C151.241 89.64 150.969 89 150.969 88.264V71.32C150.969 71.064 150.825 70.936 150.537 70.936H145.593ZM173.337 91C172.601 91 171.961 90.728 171.417 90.184C170.873 89.64 170.601 89 170.601 88.264V68.776C170.601 68.04 170.873 67.4 171.417 66.856C171.961 66.312 172.601 66.04 173.337 66.04H174.249C174.985 66.04 175.625 66.312 176.169 66.856C176.713 67.4 176.985 68.04 176.985 68.776V82.264L177.033 82.312L177.081 82.264L184.809 68.392C185.705 66.824 187.065 66.04 188.889 66.04H189.945C190.681 66.04 191.321 66.312 191.865 66.856C192.409 67.4 192.681 68.04 192.681 68.776V88.264C192.681 89 192.409 89.64 191.865 90.184C191.321 90.728 190.681 91 189.945 91H189.033C188.297 91 187.657 90.728 187.113 90.184C186.569 89.64 186.297 89 186.297 88.264V74.776L186.249 74.728L186.201 74.776L178.473 88.648C177.577 90.216 176.217 91 174.393 91H173.337Z" fill="#03044E"/>
<path d="M31.9039 30.4145C31.8937 25.813 35.7688 22.0842 40.5591 22.0858L63.2734 22.0429C68.9623 22.0449 70.5776 34.2014 70.5901 39.6656L70.2805 49.7583L74.7765 67.8557L77.3564 75.2309L78.5354 82.4625L78.5354 89.7803L40.7082 89.7803C35.9179 89.7788 32.0264 86.0476 32.0162 81.4457L31.9039 30.4145Z" fill="#03044E"/>
<path d="M56.2949 49.9533C63.314 54.4644 72.656 52.4225 77.161 45.3924C81.666 38.3624 79.628 29.0064 72.609 24.4953C65.59 19.9842 56.2479 22.0261 51.7429 29.0561C47.2379 36.0862 49.2759 45.4422 56.2949 49.9533Z" fill="#03044E"/>
<path d="M58.2746 79.7648C65.6451 84.5018 75.4549 82.3576 80.1854 74.9756C84.916 67.5936 82.7759 57.7692 75.4054 53.0322C68.035 48.2952 58.2252 50.4394 53.4946 57.8214C48.7641 65.2034 50.9042 75.0278 58.2746 79.7648Z" fill="#03044E"/>
<path d="M42.6909 76.6412C40.4799 76.602 38.6576 78.3179 38.6206 80.4745C38.5836 82.6312 40.346 84.4112 42.5571 84.4508L42.6909 76.6412ZM42.5571 84.4508L81.4025 85.1423L81.529 81.2645L81.5363 77.3326L42.6909 76.6412L42.5571 84.4508Z" fill="white"/>
<path d="M49.8715 80.8004L45.999 80.7795L46.0571 83.4242L46.0571 85.8919L46.0571 87.7425L46.0571 89.7987L46.0571 91.6498L46.0571 92.8834L46.0571 96.9965L48.1104 95.1454L50.0724 96.9965L50.0724 95.351L49.9446 92.8834L49.9446 91.8555L49.9446 89.7987L49.9446 88.7709L49.8715 87.7425L49.8715 85.6862L49.8715 83.2185L49.8715 80.8004Z" fill="#03044E" stroke="#03044E" stroke-width="3"/>
</svg>
